PathFileType	4	(X/Y/Z)	SUBJ82_1_walk_RCNL2025.trc
DataRate	CameraRate	NumFrames	NumMarkers	Units	OrigDataRate	OrigDataStartFrame	OrigNumFrames
100	100	13	25	mm	100	1	226
Frame#	Time	R_Shoulder			L_Shoulder			C7			J_Notch			R_Elbow			L_Elbow			R_Wrist			L_Wrist			R_Asis			L_Asis			Sacral			Thoracic			Sternum			R_Thigh_Lateral			R_Knee_Lateral			R_Shank_Lateral			R_Ankle_Lateral			R_Heel			R_Toe			L_Thigh_Lateral			L_Knee_Lateral			L_Shank_Lateral			L_Ankle_Lateral			L_Heel			L_Toe		
		X1	Y1	Z1	X2	Y2	Z2	X3	Y3	Z3	X4	Y4	Z4	X5	Y5	Z5	X6	Y6	Z6	X7	Y7	Z7	X8	Y8	Z8	X9	Y9	Z9	X10	Y10	Z10	X11	Y11	Z11	X12	Y12	Z12	X13	Y13	Z13	X14	Y14	Z14	X15	Y15	Z15	X16	Y16	Z16	X17	Y17	Z17	X18	Y18	Z18	X19	Y19	Z19	X20	Y20	Z20	X21	Y21	Z21	X22	Y22	Z22	X23	Y23	Z23	X24	Y24	Z24	X25	Y25	Z25
1	0.00000000	-1220.181519	1439.258179	-46.185619	-1194.620239	1448.994507	-455.794006	-1256.297485	1534.884033	-245.885178	-1115.400513	1420.498047	-241.183090	-1283.852905	1101.646851	32.787842	-1307.170410	1117.680908	-529.425903	-1163.578186	868.508606	20.101203	-1261.900696	861.315918	-520.664825	-1183.031616	1001.991089	-103.455193	-1156.955322	1013.239075	-369.670715	-1348.132690	1027.613647	-262.355957	-1358.638306	1298.858276	-259.999176	-1120.249634	1242.311768	-244.560501	-1258.087524	568.870667	-83.161407	-1266.583008	484.097534	-135.070679	-1303.651611	259.216309	-81.562088	-1324.158081	79.205490	-182.739868	-1371.406006	48.792469	-223.490417	-1189.823364	51.969349	-210.310028	-1133.876099	583.069214	-446.179138	-1120.632080	514.752136	-403.323059	-1203.688232	307.110382	-434.936066	-1273.632202	133.292007	-363.800812	-1307.808716	124.090034	-302.793579	-1150.681030	62.675606	-361.974854
2	0.01000000	-1205.132568	1439.043091	-46.287945	-1181.090942	1447.875366	-455.979675	-1242.304565	1534.301880	-246.417938	-1109.985840	1419.291016	-242.536636	-1265.255127	1101.365234	34.791050	-1296.925049	1117.406860	-527.863647	-1140.763550	870.478241	21.007791	-1255.714050	860.079468	-517.977402	-1168.745972	1000.777710	-103.433937	-1141.915771	1012.776733	-369.635071	-1333.172485	1026.968994	-262.859406	-1344.053345	1297.992554	-259.759827	-1105.501953	1241.780640	-244.360840	-1251.725952	568.679504	-83.499962	-1262.101074	483.984406	-135.506439	-1301.916138	259.507904	-81.725845	-1323.788818	79.442566	-183.037064	-1371.110962	49.096039	-223.796310	-1189.644531	51.860996	-210.477219	-1112.673340	584.140503	-445.737457	-1099.619629	514.634583	-402.221741	-1169.133911	300.449127	-434.131836	-1227.387451	122.689552	-362.930634	-1260.144653	110.604675	-301.300598	-1099.821411	61.895695	-362.470947
3	0.02000000	-1189.659302	1438.390259	-46.430637	-1167.115112	1446.409302	-456.200134	-1227.888916	1533.358887	-247.005081	-1102.193481	1417.791626	-243.920578	-1246.125854	1100.709961	36.755417	-1286.331787	1116.831299	-526.226685	-1117.405518	872.152466	21.867857	-1249.011475	858.703766	-515.475342	-1154.086792	999.287781	-103.474922	-1126.339722	1011.844604	-369.672333	-1317.739014	1025.874268	-263.379730	-1329.059937	1296.785400	-259.655273	-1090.301025	1240.856445	-244.271469	-1244.980347	568.412048	-83.786568	-1257.181030	483.814850	-135.886520	-1299.834351	259.775085	-81.864128	-1323.395874	79.708870	-183.339417	-1370.883301	49.515892	-224.066513	-1189.420654	51.720512	-210.680008	-1091.989990	584.546631	-445.074982	-1079.028809	513.868225	-401.074799	-1133.975952	293.873383	-433.334381	-1179.281738	112.628143	-362.325409	-1210.261719	97.584404	-299.964264	-1047.514893	62.318523	-363.305511
4	0.03000000	-1174.026611	1437.276855	-46.624535	-1152.925049	1444.594971	-456.460632	-1213.252930	1532.019165	-247.582993	-1092.058960	1416.021851	-245.193649	-1226.794800	1099.667114	38.626934	-1275.580078	1115.947510	-524.574707	-1093.940918	873.470703	22.658664	-1241.882935	857.173706	-513.173141	-1139.316528	997.533752	-103.579391	-1110.486450	1010.418518	-369.781036	-1302.093384	1024.312378	-263.948395	-1313.919556	1295.226562	-259.710358	-1074.918335	1239.513062	-244.300308	-1237.898926	568.041321	-84.019440	-1251.826904	483.570374	-136.212128	-1297.413330	259.998016	-82.009224	-1322.980835	80.009102	-183.665070	-1370.709961	50.052902	-224.339020	-1189.186401	51.569862	-210.896591	-1072.469604	584.096252	-444.155579	-1059.375000	512.352051	-399.857880	-1099.049927	287.645996	-432.596039	-1130.269409	103.609619	-362.123871	-1159.190674	85.632095	-298.990295	-994.868896	64.190697	-364.430237
5	0.04000000	-1158.396851	1435.709961	-46.877472	-1138.662109	1442.446289	-456.766907	-1198.514526	1530.270264	-248.107101	-1079.928223	1413.980713	-246.281204	-1207.462158	1098.245972	40.371449	-1264.790649	1114.771851	-522.968262	-1070.647644	874.408295	23.363556	-1234.375671	855.473145	-511.040756	-1124.570190	995.540771	-103.755905	-1094.517334	1008.501953	-369.950745	-1286.394165	1022.292236	-264.604309	-1298.792847	1293.323120	-259.939392	-1059.524048	1237.746704	-244.439102	-1230.489014	567.539917	-84.205231	-1246.021973	483.227081	-136.501038	-1294.661743	260.164520	-82.204765	-1322.541870	80.354248	-184.043488	-1370.562744	50.704678	-224.669891	-1188.969971	51.428303	-211.114532	-1054.532104	582.643188	-442.954956	-1040.951172	510.041443	-398.536621	-1064.928955	281.977234	-431.961914	-1081.068604	96.032440	-362.407471	-1107.755249	75.226860	-298.535980	-942.699158	67.684395	-365.760742
6	0.05000000	-1142.852539	1433.718140	-47.195023	-1124.398804	1439.990234	-457.123901	-1183.738403	1528.125000	-248.567154	-1066.315918	1411.652100	-247.174194	-1188.230469	1096.472290	41.969517	-1254.032227	1113.339722	-521.471619	-1047.680542	874.967255	23.967601	-1226.509583	853.599976	-509.049911	-1109.891602	993.343689	-104.003990	-1078.516479	1006.120850	-370.161041	-1270.718994	1019.844299	-265.384003	-1283.760010	1291.096924	-260.342499	-1044.204224	1235.573242	-244.670288	-1222.738892	566.886047	-84.356567	-1239.745361	482.763336	-136.779846	-1291.593994	260.271332	-82.497108	-1322.076294	80.761032	-184.511185	-1370.411743	51.478699	-225.117874	-1188.781494	51.304756	-211.338699	-1038.383301	580.100952	-441.465302	-1023.846924	506.957092	-397.077057	-1031.936401	277.022827	-431.461975	-1032.227661	90.172791	-363.178986	-1056.624512	66.707275	-298.682648	-891.606567	72.877304	-367.196960
7	0.06000000	-1127.418823	1431.345581	-47.580616	-1110.160522	1437.263550	-457.533447	-1168.953857	1525.617310	-248.977844	-1051.740723	1409.023560	-247.902985	-1169.146362	1094.383179	43.406807	-1243.338501	1111.700928	-520.151794	-1025.110931	875.167389	24.455937	-1218.284851	851.563660	-507.182404	-1095.264771	990.981567	-104.308220	-1062.516968	1003.320557	-370.385498	-1255.092163	1017.015991	-266.317108	-1268.844238	1288.584106	-260.905243	-1028.981812	1233.027466	-244.976929	-1214.637939	566.069275	-84.491028	-1232.988403	482.167297	-137.076401	-1288.232910	260.325104	-82.928375	-1321.581665	81.252243	-185.103241	-1370.232422	52.395630	-225.733459	-1188.616211	51.200714	-211.586517	-1024.029663	576.460205	-439.697388	-1007.971497	503.190460	-395.459015	-1000.183960	272.891449	-431.109741	-984.209290	86.175865	-364.367157	-1006.382385	60.268112	-299.433411	-842.063904	79.718857	-368.634827
8	0.07000000	-1112.084473	1428.647583	-48.034851	-1095.942017	1434.308105	-457.996857	-1154.164917	1522.797485	-249.364548	-1036.623901	1406.102539	-248.517029	-1150.235107	1092.022583	44.669643	-1232.715942	1109.910889	-519.066711	-1002.963593	875.039062	24.816079	-1209.686096	849.379028	-505.424026	-1080.651123	988.488098	-104.640305	-1046.523682	1000.165222	-370.595795	-1239.508789	1013.869202	-267.424194	-1254.032959	1285.834839	-261.602356	-1013.840271	1230.160156	-245.346329	-1206.187378	565.095642	-84.630653	-1225.763306	481.442017	-137.415848	-1284.610474	260.345123	-83.528549	-1321.055542	81.858894	-185.842163	-1370.005737	53.486980	-226.547592	-1188.462158	51.117935	-211.875885	-1011.293396	571.806396	-437.688171	-993.076965	498.905273	-393.692902	-969.626343	269.651855	-430.907928	-937.465698	84.050575	-365.851654	-957.595276	55.958965	-300.725464	-794.485962	87.999184	-369.969452
9	0.08000000	-1096.818115	1425.685547	-48.555843	-1081.718994	1431.168213	-458.519501	-1139.359985	1519.728271	-249.754150	-1021.255981	1402.922485	-249.073441	-1131.519531	1089.438232	45.746643	-1222.143433	1108.018311	-518.246338	-981.246643	874.618500	25.042325	-1200.687805	847.066833	-503.766678	-1066.025269	985.885681	-104.963669	-1030.531006	996.736816	-370.764374	-1223.951416	1010.476440	-268.713135	-1239.297119	1282.912109	-262.402374	-998.749512	1227.031982	-245.765625	-1197.401611	563.990417	-84.798500	-1218.098022	480.606201	-137.815689	-1280.767334	260.367188	-84.305786	-1320.494385	82.621307	-186.726730	-1369.718750	54.792763	-227.558914	-1188.305176	51.062737	-212.213715	-999.823120	566.330566	-435.509918	-978.781494	494.331299	-391.834259	-940.126221	267.331696	-430.853455	-892.480225	83.660301	-367.484680	-910.851318	53.675686	-302.443848	-749.270630	97.335999	-371.095886
10	0.09000000	-1081.578491	1422.524658	-49.139534	-1067.457153	1427.889893	-459.110229	-1124.517334	1516.482544	-250.170486	-1005.807068	1399.539429	-249.627762	-1113.029175	1086.680420	46.627655	-1211.563843	1106.053711	-517.673401	-959.971222	873.945251	25.135940	-1191.257690	844.654816	-502.212555	-1051.378906	983.193115	-105.242599	-1014.533813	993.134766	-370.869934	-1208.399902	1006.915588	-270.174347	-1224.601807	1279.887329	-263.270294	-983.684326	1223.706543	-246.220444	-1188.300903	562.797058	-85.011589	-1210.025635	479.692688	-138.276855	-1276.745850	260.443390	-85.237289	-1319.890625	83.585403	-187.725632	-1369.365112	56.360054	-228.726883	-1188.130859	51.044552	-212.589691	-989.095825	560.325928	-433.271088	-964.604736	489.743988	-389.985504	-911.520874	265.908142	-430.937683	-849.774597	84.714699	-369.102631	-866.762695	53.153141	-304.433655	-706.811707	107.183136	-371.910004
11	0.10000000	-1066.324829	1419.232910	-49.779461	-1053.119751	1424.522461	-459.778320	-1109.609619	1513.139526	-250.633194	-990.356140	1396.023560	-250.225174	-1094.804932	1083.801392	47.299648	-1200.878174	1104.023804	-517.273743	-939.158661	873.059570	25.101025	-1181.356018	842.173889	-500.766891	-1036.704102	980.436462	-105.450119	-998.530762	989.472412	-370.904541	-1192.833740	1003.266357	-271.779236	-1209.911255	1276.833618	-264.169495	-968.628113	1220.247803	-246.703018	-1178.898682	561.570557	-85.273338	-1201.573120	478.743896	-138.776215	-1272.575562	260.635071	-86.266541	-1319.228882	84.796021	-188.780197	-1368.941895	58.240948	-229.975723	-1187.924805	51.071541	-212.976410	-978.423706	554.173340	-431.111664	-950.025208	485.430634	-388.279114	-883.690369	265.292755	-431.142120	-809.891296	86.777733	-370.541656	-825.938843	53.976608	-306.517181	-667.491028	116.861298	-372.312805
12	0.11000000	-1051.020386	1415.881104	-50.468933	-1038.672607	1421.119141	-460.531677	-1094.606323	1509.781250	-251.158005	-974.924377	1392.448242	-250.896118	-1076.897095	1080.856812	47.746979	-1189.959717	1101.920898	-516.939453	-918.842133	872.000488	24.942730	-1170.937317	839.654785	-499.432281	-1021.984924	977.653748	-105.569534	-982.522156	985.871277	-370.878662	-1177.232422	999.609314	-273.483582	-1195.190186	1273.820312	-265.065247	-953.567688	1216.723999	-247.222290	-1169.189331	560.367737	-85.568962	-1192.750366	477.805206	-139.267166	-1268.253906	260.999298	-87.311005	-1318.482666	86.292946	-189.813675	-1368.442993	60.489716	-231.207016	-1187.673218	51.145744	-213.334412	-966.997620	548.313110	-429.200989	-934.558533	481.648895	-386.849609	-856.624451	265.314270	-431.428864	-773.353882	89.305328	-371.660034	-788.936279	55.617512	-308.511108	-631.654541	125.617043	-372.216858
13	0.12000000	-1035.632446	1412.540894	-51.204926	-1024.088623	1417.737915	-461.374847	-1079.476318	1506.487793	-251.756668	-959.498413	1388.887695	-251.659576	-1059.354736	1077.905518	47.955338	-1178.689331	1099.745728	-516.581665	-899.065002	870.805206	24.667512	-1159.960266	837.132599	-498.221573	-1007.198914	974.894104	-105.595581	-966.501709	982.451843	-370.819214	-1161.572754	996.024780	-275.232758	-1180.404663	1270.909424	-265.928497	-938.487793	1213.212036	-247.804321	-1159.144287	559.239380	-85.866035	-1183.542725	476.915375	-139.691025	-1263.734009	261.577820	-88.276024	-1317.615967	88.112968	-190.740860	-1367.852905	63.162373	-232.315674	-1187.361816	51.259430	-213.621567	-953.997803	543.198425	-427.729553	-917.838013	478.587402	-385.807465	-830.466492	265.713928	-431.730682	-740.605469	91.716660	-372.353210	-756.188843	57.491516	-310.232574	-599.576965	132.714844	-371.551544
